<?xml version="1.0" encoding="utf-8"?>
<!-- Generator: Adobe Illustrator 27.5.0, SVG Export Plug-In . SVG Version: 6.00 Build 0)  -->
<svg version="1.1" id="Layer_1" xmlns="http://www.w3.org/2000/svg" xmlns:xlink="http://www.w3.org/1999/xlink" x="0px" y="0px"
	 viewBox="0 0 1300 1300" style="enable-background:new 0 0 1300 1300;" xml:space="preserve">
<g id="XMLID_8_">
	<g id="XMLID_3_">
		
			<linearGradient id="XMLID_00000111895836647875314850000016218543162453604252_" gradientUnits="userSpaceOnUse" x1="461.4461" y1="211.0669" x2="806.0521" y2="211.0669">
			<stop  offset="0" style="stop-color:#0D1322"/>
			<stop  offset="0.3774" style="stop-color:#192432"/>
			<stop  offset="1" style="stop-color:#314955"/>
		</linearGradient>
		<path id="XMLID_6_" style="fill:url(#XMLID_00000111895836647875314850000016218543162453604252_);" d="M806.052,255.879
			c0,18.985-15.39,34.375-34.375,34.375H476.052c-19.958,0-18.985-135.417,0-135.417h295.625c1.099,0,2.184,0.057,3.256,0.158
			c18.25-2.303,31.119-23.116,31.119-23.116v57.331c0,0.001,0,0.002,0,0.003V255.879z"/>
		
			<linearGradient id="XMLID_00000164511378561514481030000006113000977769714063_" gradientUnits="userSpaceOnUse" x1="493.4461" y1="803.2749" x2="838.0521" y2="803.2749">
			<stop  offset="0" style="stop-color:#314955"/>
			<stop  offset="0.6226" style="stop-color:#192432"/>
			<stop  offset="1" style="stop-color:#0D1322"/>
		</linearGradient>
		<path id="XMLID_4_" style="fill:url(#XMLID_00000164511378561514481030000006113000977769714063_);" d="M493.446,758.462
			c0-18.985,15.39-34.375,34.375-34.375h295.625c19.958,0,18.985,135.417,0,135.417H527.821c-1.099,0-2.184-0.057-3.256-0.158
			c-18.25,2.303-31.119,23.116-31.119,23.116v-57.331c0-0.001,0-0.002,0-0.003V758.462z"/>
		
			<linearGradient id="XMLID_00000169556408475823945490000016914757533499877028_" gradientUnits="userSpaceOnUse" x1="470.8955" y1="506.5201" x2="838.0521" y2="506.5201">
			<stop  offset="0" style="stop-color:#314955"/>
			<stop  offset="0.6226" style="stop-color:#192432"/>
			<stop  offset="1" style="stop-color:#0D1322"/>
		</linearGradient>
		<polygon id="XMLID_1_" style="fill:url(#XMLID_00000169556408475823945490000016914757533499877028_);" points="470.895,437.724 
			750.052,437.724 838.052,528.724 829.292,575.317 550.052,575.317 480.052,490.724 		"/>
		
			<linearGradient id="XMLID_00000061454734719870911980000011417895284697466300_" gradientUnits="userSpaceOnUse" x1="404.0969" y1="646.093" x2="895.9031" y2="646.093">
			<stop  offset="0" style="stop-color:#9E0B0F"/>
			<stop  offset="0.1598" style="stop-color:#A40C11"/>
			<stop  offset="0.3733" style="stop-color:#B41116"/>
			<stop  offset="0.5969" style="stop-color:#CE181E"/>
			<stop  offset="0.6691" style="stop-color:#CF1B1F"/>
			<stop  offset="0.7343" style="stop-color:#D22622"/>
			<stop  offset="0.7967" style="stop-color:#D83826"/>
			<stop  offset="0.8575" style="stop-color:#DF522B"/>
			<stop  offset="0.9171" style="stop-color:#E97433"/>
			<stop  offset="0.975" style="stop-color:#F59C3B"/>
			<stop  offset="1" style="stop-color:#FBB040"/>
		</linearGradient>
		<path id="XMLID_2_" style="fill:url(#XMLID_00000061454734719870911980000011417895284697466300_);" d="M891.292,747.075
			c9.492-16.441,3.859-37.465-12.582-46.957l-389.711-225c-17.284-9.979-18.103-37.395-18.103-37.395L442.041,487.7l-33.333,57.735
			c-9.492,16.441-3.859,37.465,12.582,46.957l389.711,225c0.951,0.549,1.92,1.043,2.899,1.491
			c14.653,11.12,15.392,35.578,15.392,35.578l28.665-49.65c0-0.001,0.001-0.001,0.001-0.002L891.292,747.075z"/>
		
			<linearGradient id="XMLID_00000135667812645700960650000015914712345380840846_" gradientUnits="userSpaceOnUse" x1="404.0969" y1="366.9471" x2="895.9031" y2="366.9471">
			<stop  offset="0" style="stop-color:#9E0B0F"/>
			<stop  offset="0.1598" style="stop-color:#A40C11"/>
			<stop  offset="0.3733" style="stop-color:#B41116"/>
			<stop  offset="0.5969" style="stop-color:#CE181E"/>
			<stop  offset="0.6691" style="stop-color:#CF1B1F"/>
			<stop  offset="0.7343" style="stop-color:#D22622"/>
			<stop  offset="0.7967" style="stop-color:#D83826"/>
			<stop  offset="0.8575" style="stop-color:#DF522B"/>
			<stop  offset="0.9171" style="stop-color:#E97433"/>
			<stop  offset="0.975" style="stop-color:#F59C3B"/>
			<stop  offset="1" style="stop-color:#FBB040"/>
		</linearGradient>
		<path id="XMLID_5_" style="fill:url(#XMLID_00000135667812645700960650000015914712345380840846_);" d="M891.292,467.93
			c9.492-16.441,3.859-37.465-12.582-46.957l-389.711-225c-17.284-9.979-18.103-37.395-18.103-37.395l-28.854,49.977l-33.333,57.735
			c-9.492,16.441-3.859,37.465,12.582,46.957l389.711,225c0.951,0.549,1.92,1.043,2.899,1.492
			c14.653,11.12,15.392,35.578,15.392,35.578l28.665-49.65c0-0.001,0.001-0.001,0.001-0.002L891.292,467.93z"/>
		<path id="XMLID_13_" style="fill:#F2665E;" d="M819.946,531.772l-0.882-0.657l0.002,0.001c-1.087-0.464-2.13-1.019-3.186-1.552
			l-3.083-1.744l-6.167-3.488l-12.334-6.975l-24.663-13.961l-49.083-28.343l-98.169-56.678l-98.169-56.678l-49.084-28.34
			l-48.835-28.771l49.334,27.907l49.085,28.338l98.169,56.678l98.169,56.678l49.087,28.336l24.422,14.378l12.208,7.194l6.104,3.597
			l3.052,1.799c1.042,0.549,2.075,1.124,3.153,1.607l0.002,0.001L819.946,531.772z"/>
		<path id="XMLID_12_" style="fill:#F2665E;" d="M483.998,204.633c0,0,6.639,3.76,18.257,10.339
			c5.809,3.29,12.863,7.284,20.954,11.866c4.046,2.291,8.35,4.729,12.889,7.299c4.517,2.607,9.266,5.348,14.222,8.208
			c39.642,22.888,92.499,53.404,145.356,83.921c52.857,30.517,105.713,61.033,145.356,83.921c4.954,2.864,9.701,5.608,14.216,8.219
			c4.495,2.645,8.759,5.153,12.766,7.511c2.004,1.179,3.943,2.32,5.815,3.421c1.84,1.17,3.592,2.407,4.991,3.897
			c1.469,1.411,2.599,3.017,3.609,4.574c0.443,0.817,0.897,1.606,1.272,2.407c0.323,0.824,0.72,1.597,0.956,2.404
			c1.082,3.188,1.393,6.213,1.326,8.812c-0.135,2.603-0.591,4.781-1.137,6.487c-0.567,1.697-1.108,2.964-1.564,3.768
			c-0.428,0.819-0.648,1.242-0.648,1.242s0.214-0.426,0.628-1.252c0.442-0.81,0.962-2.085,1.499-3.784
			c0.516-1.708,0.934-3.883,1.025-6.466c0.024-2.579-0.334-5.568-1.452-8.693c-0.245-0.792-0.65-1.547-0.98-2.353
			c-0.382-0.782-0.841-1.552-1.289-2.346c-1.019-1.514-2.151-3.07-3.612-4.427c-1.385-1.429-3.101-2.598-4.936-3.727
			c-1.89-1.07-3.848-2.18-5.87-3.325c-4.045-2.292-8.35-4.73-12.888-7.301c-4.518-2.605-9.268-5.344-14.225-8.202
			c-39.643-22.887-92.499-53.404-145.356-83.921c-52.857-30.517-105.713-61.034-145.356-83.921
			c-4.955-2.862-9.703-5.604-14.22-8.212c-4.495-2.645-8.759-5.154-12.766-7.512c-8.014-4.716-15-8.827-20.753-12.213
			C490.574,208.502,483.998,204.633,483.998,204.633z"/>
		<path id="XMLID_11_" style="fill:#F2665E;" d="M819.946,810.663l-0.882-0.657l0.002,0.001c-1.087-0.464-2.13-1.019-3.186-1.552
			l-3.083-1.744l-6.167-3.488l-12.334-6.975l-24.663-13.961l-49.083-28.343l-98.169-56.678l-98.169-56.678l-49.084-28.34
			l-48.835-28.771l49.334,27.907l49.085,28.338l98.169,56.678l98.169,56.678l49.087,28.336l24.422,14.378l12.208,7.194l6.104,3.597
			l3.052,1.799c1.042,0.549,2.075,1.124,3.153,1.607l0.002,0.001L819.946,810.663z"/>
		<path id="XMLID_10_" style="fill:#F2665E;" d="M483.998,483.523c0,0,6.639,3.76,18.257,10.339
			c5.809,3.29,12.863,7.284,20.954,11.866c4.046,2.291,8.35,4.729,12.889,7.299c4.517,2.607,9.266,5.348,14.222,8.208
			c39.642,22.888,92.499,53.404,145.356,83.921c52.857,30.517,105.713,61.034,145.356,83.921c4.954,2.864,9.701,5.608,14.216,8.219
			c4.495,2.645,8.759,5.153,12.766,7.511c2.004,1.179,3.943,2.32,5.815,3.421c1.84,1.17,3.592,2.407,4.991,3.897
			c1.469,1.411,2.599,3.017,3.609,4.574c0.443,0.817,0.897,1.606,1.272,2.407c0.323,0.824,0.72,1.597,0.956,2.404
			c1.082,3.188,1.393,6.213,1.326,8.812c-0.135,2.603-0.591,4.781-1.137,6.487c-0.567,1.697-1.108,2.964-1.564,3.768
			c-0.428,0.819-0.648,1.242-0.648,1.242s0.214-0.426,0.628-1.252c0.442-0.81,0.962-2.085,1.499-3.784
			c0.516-1.708,0.934-3.883,1.025-6.466c0.024-2.578-0.334-5.568-1.452-8.693c-0.245-0.792-0.65-1.547-0.98-2.353
			c-0.382-0.782-0.841-1.552-1.289-2.346c-1.019-1.514-2.151-3.07-3.612-4.427c-1.385-1.429-3.101-2.598-4.936-3.727
			c-1.89-1.07-3.848-2.18-5.87-3.325c-4.045-2.292-8.35-4.73-12.888-7.301c-4.518-2.605-9.268-5.344-14.225-8.202
			c-39.643-22.888-92.499-53.404-145.356-83.921c-52.857-30.517-105.713-61.034-145.356-83.921
			c-4.955-2.862-9.703-5.604-14.22-8.212c-4.495-2.645-8.759-5.154-12.766-7.512c-8.014-4.716-15-8.827-20.753-12.213
			C490.574,487.393,483.998,483.523,483.998,483.523z"/>
	</g>
	<g id="XMLID_52_">
		<path id="XMLID_53_" style="fill:#062332;" d="M263.933,928.871h28.389l31.468,50.623l31.468-50.623h28.39v119.715h-26.166V970.43
			l-33.691,51.135h-0.684l-33.349-50.622v77.644h-25.824V928.871z"/>
		<path id="XMLID_55_" style="fill:#062332;" d="M407.073,989.07v-0.342c0-34.033,26.851-61.909,63.791-61.909
			c36.94,0,63.448,27.534,63.448,61.567v0.342c0,34.033-26.85,61.91-63.79,61.91C433.581,1050.639,407.073,1023.104,407.073,989.07z
			 M506.778,989.07v-0.342c0-20.522-15.05-37.624-36.256-37.624c-21.207,0-35.915,16.76-35.915,37.282v0.342
			c0,20.522,15.05,37.625,36.257,37.625C492.07,1026.354,506.778,1009.594,506.778,989.07z"/>
		<path id="XMLID_58_" style="fill:#062332;" d="M557.737,928.871h46.688c37.625,0,63.62,25.824,63.62,59.516v0.342
			c0,33.691-25.995,59.857-63.62,59.857h-46.688V928.871z M604.426,1024.814c21.549,0,36.086-14.537,36.086-35.744v-0.342
			c0-21.206-14.537-36.085-36.086-36.085h-20.352v72.171H604.426z"/>
		<path id="XMLID_61_" style="fill:#062332;" d="M691.473,928.871h90.299v23.431h-64.133v24.284h56.437v23.43h-56.437v25.141h64.987
			v23.43h-91.153V928.871z"/>
		<path id="XMLID_63_" style="fill:#062332;" d="M806.053,928.871h54.727c15.222,0,27.021,4.276,34.889,12.143
			c6.67,6.67,10.262,16.076,10.262,27.363v0.343c0,19.325-10.433,31.468-25.653,37.111l29.244,42.755h-30.783l-25.653-38.309
			h-20.693v38.309h-26.338V928.871z M859.069,987.019c12.827,0,20.181-6.841,20.181-16.931v-0.343
			c0-11.287-7.867-17.102-20.693-17.102h-26.166v34.375H859.069z"/>
		<path id="XMLID_66_" style="fill:#062332;" d="M929.697,928.871h24.284l56.095,73.71v-73.71h25.995v119.715h-22.403
			l-57.977-76.105v76.105h-25.994V928.871z"/>
	</g>
	<g id="XMLID_14_">
		<path id="XMLID_15_" style="fill:#CE181E;" d="M265.211,1133.95v11.221h-4.999v-74.464h4.999v34.07
			c4.488-6.835,11.118-12.854,21.421-12.854c12.546,0,25.297,10.099,25.297,27.032v0.203c0,16.934-12.751,27.235-25.297,27.235
			C276.228,1146.395,269.496,1140.479,265.211,1133.95z M306.523,1119.363v-0.204c0-13.668-9.487-22.44-20.401-22.44
			c-10.813,0-21.217,9.078-21.217,22.339v0.204c0,13.362,10.404,22.339,21.217,22.339
			C297.445,1141.601,306.523,1133.338,306.523,1119.363z"/>
		<path id="XMLID_18_" style="fill:#CE181E;" d="M326.512,1124.974v-31.825h4.999v30.907c0,10.711,6.018,17.749,16.524,17.749
			c10.201,0,18.055-7.752,18.055-18.564v-30.092h4.998v52.022h-4.998v-9.69c-3.468,6.12-9.283,10.914-18.769,10.914
			C334.162,1146.395,326.512,1137.419,326.512,1124.974z"/>
		<path id="XMLID_20_" style="fill:#CE181E;" d="M385.568,1138.643l2.958-3.979c5.712,4.387,12.037,6.835,18.667,6.835
			c7.038,0,12.546-3.877,12.546-9.895v-0.204c0-6.12-6.528-8.364-13.771-10.404c-8.467-2.448-17.851-4.999-17.851-14.281v-0.204
			c0-8.364,7.039-14.383,17.137-14.383c6.223,0,13.261,2.244,18.463,5.713l-2.652,4.182c-4.794-3.162-10.507-5.202-16.015-5.202
			c-7.141,0-11.833,3.876-11.833,9.079v0.203c0,5.814,7.039,7.957,14.485,10.099c8.364,2.347,17.137,5.406,17.137,14.587v0.204
			c0,9.282-7.956,15.199-17.953,15.199C399.339,1146.191,391.077,1143.131,385.568,1138.643z"/>
		<path id="XMLID_22_" style="fill:#CE181E;" d="M440.852,1072.747h6.222v6.835h-6.222V1072.747z M441.464,1093.148h4.998v52.022
			h-4.998V1093.148z"/>
		<path id="XMLID_25_" style="fill:#CE181E;" d="M466.147,1093.148h4.999v9.69c3.468-6.12,9.282-10.915,18.769-10.915
			c13.159,0,20.809,8.977,20.809,21.422v31.825h-4.998v-30.907c0-10.711-6.019-17.749-16.525-17.749
			c-10.201,0-18.055,7.752-18.055,18.564v30.092h-4.999V1093.148z"/>
		<path id="XMLID_27_" style="fill:#CE181E;" d="M525.103,1119.262v-0.204c0-15.097,10.608-27.134,24.685-27.134
			c14.586,0,23.869,11.833,23.869,27.235c0,0.919,0,1.225-0.102,2.041h-43.148c0.918,12.954,10.2,20.503,20.401,20.503
			c8.059,0,13.566-3.57,17.851-8.161l3.468,3.061c-5.304,5.712-11.526,9.792-21.523,9.792
			C536.935,1146.395,525.103,1135.48,525.103,1119.262z M568.251,1116.712c-0.714-10.507-6.732-20.197-18.667-20.197
			c-10.302,0-18.259,8.67-19.177,20.197H568.251z"/>
		<path id="XMLID_30_" style="fill:#CE181E;" d="M583.752,1138.643l2.958-3.979c5.713,4.387,12.037,6.835,18.667,6.835
			c7.039,0,12.547-3.877,12.547-9.895v-0.204c0-6.12-6.528-8.364-13.771-10.404c-8.467-2.448-17.851-4.999-17.851-14.281v-0.204
			c0-8.364,7.038-14.383,17.137-14.383c6.222,0,13.261,2.244,18.463,5.713l-2.652,4.182c-4.794-3.162-10.507-5.202-16.015-5.202
			c-7.141,0-11.833,3.876-11.833,9.079v0.203c0,5.814,7.038,7.957,14.485,10.099c8.364,2.347,17.137,5.406,17.137,14.587v0.204
			c0,9.282-7.957,15.199-17.953,15.199C597.522,1146.191,589.261,1143.131,583.752,1138.643z"/>
		<path id="XMLID_32_" style="fill:#CE181E;" d="M633.426,1138.643l2.958-3.979c5.713,4.387,12.037,6.835,18.667,6.835
			c7.039,0,12.547-3.877,12.547-9.895v-0.204c0-6.12-6.528-8.364-13.771-10.404c-8.467-2.448-17.851-4.999-17.851-14.281v-0.204
			c0-8.364,7.038-14.383,17.137-14.383c6.222,0,13.261,2.244,18.463,5.713l-2.652,4.182c-4.794-3.162-10.507-5.202-16.015-5.202
			c-7.141,0-11.833,3.876-11.833,9.079v0.203c0,5.814,7.038,7.957,14.485,10.099c8.364,2.347,17.137,5.406,17.137,14.587v0.204
			c0,9.282-7.957,15.199-17.953,15.199C647.196,1146.191,638.935,1143.131,633.426,1138.643z"/>
		<path id="XMLID_34_" style="fill:#CE181E;" d="M721.961,1131.809v-34.07h-7.548v-4.59h7.548v-16.627h4.999v16.627h18.259v4.59
			H726.96v33.56c0,7.446,4.386,10.099,10.404,10.099c2.55,0,4.692-0.51,7.65-1.836v4.692c-2.652,1.224-5.202,1.836-8.467,1.836
			C728.489,1146.089,721.961,1141.703,721.961,1131.809z"/>
		<path id="XMLID_36_" style="fill:#CE181E;" d="M755.722,1130.074v-0.204c0-10.813,9.282-16.933,22.747-16.933
			c7.242,0,12.241,0.918,17.239,2.244v-2.244c0-10.507-6.427-15.913-17.137-15.913c-6.324,0-11.527,1.734-16.321,4.183l-1.836-4.387
			c5.712-2.652,11.322-4.488,18.463-4.488c7.038,0,12.648,1.938,16.423,5.713c3.468,3.468,5.304,8.262,5.304,14.688v32.438h-4.895
			v-8.671c-3.57,4.999-9.997,9.895-19.892,9.895C766.126,1146.395,755.722,1140.887,755.722,1130.074z M795.81,1125.688v-5.916
			c-4.386-1.122-10.2-2.346-17.646-2.346c-11.017,0-17.137,4.896-17.137,12.139v0.204c0,7.548,7.14,11.935,15.097,11.935
			C786.731,1141.703,795.81,1135.175,795.81,1125.688z"/>
		<path id="XMLID_39_" style="fill:#CE181E;" d="M817.533,1153.739l2.958-4.08c6.222,4.794,13.362,7.345,21.013,7.345
			c11.935,0,20.401-6.835,20.401-20.197v-7.549c-4.488,6.427-11.425,12.037-21.728,12.037c-12.547,0-24.991-9.589-24.991-24.481
			v-0.204c0-14.994,12.444-24.686,24.991-24.686c10.404,0,17.443,5.509,21.728,11.629v-10.404h4.998v43.964
			c0,7.549-2.448,13.465-6.631,17.647c-4.487,4.488-11.22,6.936-18.87,6.936C832.731,1161.695,824.673,1159.044,817.533,1153.739z
			 M862.211,1116.712v-0.204c0-12.037-10.71-19.789-21.523-19.789c-10.914,0-20.095,7.548-20.095,19.687v0.204
			c0,11.73,9.385,19.891,20.095,19.891C851.501,1136.5,862.211,1128.544,862.211,1116.712z"/>
		<path id="XMLID_42_" style="fill:#CE181E;" d="M886.586,1070.707h4.999v74.464h-4.999V1070.707z"/>
		<path id="XMLID_44_" style="fill:#CE181E;" d="M911.371,1072.747h6.222v6.835h-6.222V1072.747z M911.982,1093.148h4.999v52.022
			h-4.999V1093.148z"/>
		<path id="XMLID_47_" style="fill:#CE181E;" d="M936.666,1093.148h4.998v9.69c3.469-6.12,9.283-10.915,18.77-10.915
			c13.158,0,20.809,8.977,20.809,21.422v31.825h-4.998v-30.907c0-10.711-6.018-17.749-16.524-17.749
			c-10.201,0-18.056,7.752-18.056,18.564v30.092h-4.998V1093.148z"/>
		<path id="XMLID_49_" style="fill:#CE181E;" d="M995.621,1119.262v-0.204c0-15.097,10.608-27.134,24.685-27.134
			c14.587,0,23.869,11.833,23.869,27.235c0,0.919,0,1.225-0.102,2.041h-43.148c0.918,12.954,10.2,20.503,20.4,20.503
			c8.059,0,13.567-3.57,17.852-8.161l3.468,3.061c-5.304,5.712-11.526,9.792-21.523,9.792
			C1007.454,1146.395,995.621,1135.48,995.621,1119.262z M1038.77,1116.712c-0.714-10.507-6.732-20.197-18.667-20.197
			c-10.303,0-18.259,8.67-19.177,20.197H1038.77z"/>
	</g>
</g>
</svg>
